# xmcd CD database file
#
# Track frame offsets:
#	150
#	22122
#	46820
#	66484
#	89068
#	110685
#	133458
#	156478
#	176241
#	192763
#	211111
#	230112
#	248577
#	264957
#	283247
#	300375
#	323443
#	341909
#
# Disc length: 4792 seconds
#
# Revision: 4
# Processed by: cddbd v1.5.1PL0 Copyright (c) Steve Scherf et al.
# Submitted via: CDex 1.51
#
DISCID=1612b612
DTITLE=Heart - Crazy On You
DYEAR=2001
DGENRE=Rock
TTITLE0=Crazy On You
TTITLE1=Magic Man
TTITLE2=Barracuda
TTITLE3=Heartless
TTITLE4=Straight On
TTITLE5=Dog And Butterfly
TTITLE6=Even It Up
TTITLE7=Tell It Like It Is
TTITLE8=What About Love
TTITLE9=Never
TTITLE10=These Dreams
TTITLE11=Nothin' At All
TTITLE12=Alone
TTITLE13=Who Will You Run to
TTITLE14=There's The Girl
TTITLE15=All I Wanna Do Is Make Love To You
TTITLE16=I Didn't Want To Need You
TTITLE17=Stranded
EXTD=YEAR: 2001
EXTT0=
EXTT1=
EXTT2=
EXTT3=
EXTT4=
EXTT5=
EXTT6=
EXTT7=
EXTT8=
EXTT9=
EXTT10=
EXTT11=
EXTT12=
EXTT13=
EXTT14=
EXTT15=
EXTT16=
EXTT17=
PLAYORDER=
